<?xml version="1.0" encoding="UTF-8" standalone="no"?>
<svg
   version="1.0"
   width="64"
   height="21.875643"
   viewBox="0 0 48 16.406732"
   preserveAspectRatio="xMidYMid"
   id="svg32"
   sodipodi:docname="TU_Admin_Logo.svg"
   inkscape:version="1.2.2 (b0a84865, 2022-12-01)"
   xmlns:inkscape="http://www.inkscape.org/namespaces/inkscape"
   xmlns:sodipodi="http://sodipodi.sourceforge.net/DTD/sodipodi-0.dtd"
   xmlns="http://www.w3.org/2000/svg"
   xmlns:svg="http://www.w3.org/2000/svg">
  <defs
     id="defs36" />
  <sodipodi:namedview
     id="namedview34"
     pagecolor="#ffffff"
     bordercolor="#000000"
     borderopacity="0.25"
     inkscape:showpageshadow="2"
     inkscape:pageopacity="0.0"
     inkscape:pagecheckerboard="0"
     inkscape:deskcolor="#d1d1d1"
     inkscape:document-units="pt"
     showgrid="false"
     inkscape:zoom="7.0308339"
     inkscape:cx="103.11721"
     inkscape:cy="49.567378"
     inkscape:window-width="1920"
     inkscape:window-height="1027"
     inkscape:window-x="0"
     inkscape:window-y="25"
     inkscape:window-maximized="0"
     inkscape:current-layer="svg32" />
  <g
     transform="matrix(0.00443207,0,0,-0.00443207,0.47783965,16.153517)"
     fill="#000000"
     stroke="none"
     id="g30"
     style="fill:#006bad;fill-opacity:1">
    <path
       d="M 277,3569 C 174,3545 80,3466 32,3362 L 5,3305 V 1790 275 L 32,218 C 69,138 137,69 213,34 L 275,5 h 1515 1515 l 57,27 c 111,52 185,146 208,263 8,44 10,462 8,1530 l -3,1470 -23,57 c -32,80 -99,150 -180,190 l -67,33 -1495,2 c -849,0 -1511,-3 -1533,-8 z M 1610,3030 V 2840 H 940 270 v 190 190 h 670 670 z m 570,-370 c 0,-541 1,-561 21,-615 35,-95 124,-175 232,-209 16,-5 17,-21 15,-198 l -3,-193 -39,3 c -22,2 -69,13 -105,24 -198,61 -355,194 -441,373 -70,147 -70,143 -70,793 v 582 h 195 195 z m 1037,-22 c -4,-644 -3,-637 -71,-781 -66,-142 -177,-258 -316,-331 -77,-40 -188,-76 -236,-76 h -34 v 195 c 0,169 2,195 15,195 57,0 173,97 216,180 l 24,45 3,578 3,577 h 200 200 z M 1140,2090 V 1450 H 950 760 v 640 640 h 190 190 z m 358,-1407 -3,-318 h -60 -60 l -3,318 -2,317 h 65 65 z m 837,257 v -55 l -144,-2 -143,-1 v -69 -68 l 121,-3 121,-3 v -54 -54 l -121,-3 -121,-3 -1,-72 -2,-73 145,-2 145,-3 v -55 -55 l -207,-3 -208,-2 v 320 320 l 208,-2 207,-3 z m 633,-132 122,-192 v 192 192 h 65 65 l -2,-317 -3,-318 h -55 -55 l -120,186 -120,185 -5,-185 -5,-186 h -60 -60 l -3,318 -2,317 h 57 l 58,-1 z M 480,804 c 24,-102 47,-187 52,-190 4,-3 8,1 8,8 0,7 23,93 52,191 l 51,177 h 48 c 37,0 49,-4 53,-17 3,-10 26,-90 51,-178 25,-88 49,-167 52,-175 3,-8 26,71 52,175 l 46,190 68,3 c 37,2 67,2 67,0 0,-2 -38,-142 -84,-313 l -83,-310 -55,-3 -54,-3 -56,188 c -31,103 -59,181 -62,173 -3,-8 -28,-93 -57,-187 L 577,360 h -53 c -41,0 -54,4 -58,18 -3,9 -39,145 -81,302 -42,157 -78,291 -80,298 -3,9 14,12 63,12 h 68 z"
       id="path2"
       style="fill:#006bad;fill-opacity:1" />
    <path
       d="m 5000,3219 c -314,-41 -580,-228 -701,-494 -61,-134 -74,-211 -73,-420 0,-163 3,-201 22,-269 90,-324 326,-525 681,-576 168,-25 498,3 602,50 l 25,12 -18,116 c -10,64 -20,131 -23,148 l -5,31 -53,-14 c -76,-20 -326,-34 -412,-23 -280,36 -415,211 -415,540 0,148 16,226 66,321 91,172 266,268 491,269 86,0 200,-18 272,-44 33,-12 46,-13 52,-5 6,11 79,278 79,292 0,11 -134,48 -230,62 -103,16 -256,18 -360,4 z"
       id="path4"
       style="fill:#006bad;fill-opacity:1" />
    <path
       d="m 8107,3220 c -322,-54 -564,-286 -654,-625 -23,-88 -26,-120 -26,-260 -1,-170 10,-242 56,-366 42,-117 95,-199 191,-295 78,-78 104,-98 186,-137 89,-42 171,-66 283,-82 l 47,-6 v 155 156 l -27,6 c -56,13 -145,69 -188,117 -51,56 -97,145 -121,232 -22,81 -30,290 -14,379 36,208 150,366 298,413 l 52,17 v 153 c 0,172 8,158 -83,143 z"
       id="path6"
       style="fill:#006bad;fill-opacity:1" />
    <path
       d="m 8310,3076 c 0,-155 0,-156 23,-156 12,0 50,-13 85,-30 113,-53 193,-159 244,-320 20,-65 23,-96 23,-225 0,-171 -13,-234 -72,-355 -58,-118 -162,-205 -270,-226 l -33,-6 v -154 c 0,-85 3,-154 8,-154 4,0 45,6 92,14 428,69 681,398 683,886 0,289 -85,508 -266,676 -41,39 -106,87 -144,107 -82,43 -212,82 -305,92 l -68,7 z"
       id="path8"
       style="fill:#006bad;fill-opacity:1" />
    <path
       d="m 9535,3224 c -11,-1 -73,-8 -137,-14 l -118,-12 v -874 -874 h 185 185 v 890 890 l -47,-1 c -27,-1 -57,-3 -68,-5 z"
       id="path10"
       style="fill:#006bad;fill-opacity:1" />
    <path
       d="m 5772,2343 3,-878 h 195 195 l 3,878 2,877 h -200 -200 z"
       id="path12"
       style="fill:#006bad;fill-opacity:1" />
    <path
       d="m 6850,2880 v -340 h -280 -280 v -172 -173 h 277 278 l 3,-367 2,-368 h 195 195 v 880 880 h -195 -195 z"
       id="path14"
       style="fill:#006bad;fill-opacity:1" />
    <path
       d="m 9790,3078 v -145 l 98,-5 c 118,-6 187,-32 237,-90 82,-97 67,-255 -32,-337 -50,-42 -147,-71 -234,-71 h -69 v -139 -138 l 53,-7 c 84,-11 120,-24 159,-56 52,-43 80,-109 132,-315 24,-99 56,-211 69,-250 l 24,-70 201,-3 c 114,-1 202,1 202,7 0,4 -7,27 -15,50 -8,23 -42,146 -75,272 -81,310 -126,403 -224,465 -46,29 -57,44 -33,44 21,0 117,69 164,119 24,25 60,78 80,118 30,61 36,85 40,160 10,160 -34,282 -135,374 -112,102 -258,149 -494,157 l -148,4 z"
       id="path16"
       style="fill:#006bad;fill-opacity:1" />
    <path
       d="m 8163,1180 c -24,-10 -53,-58 -53,-87 0,-37 38,-82 75,-89 62,-11 125,34 125,90 0,68 -78,114 -147,86 z"
       id="path18"
       style="fill:#006bad;fill-opacity:1" />
    <path
       d="m 6740,954 c 0,-169 -1,-176 -18,-161 -32,29 -106,57 -153,57 -126,0 -226,-85 -264,-225 -27,-99 -18,-259 20,-343 49,-109 140,-162 256,-149 57,7 96,26 137,66 l 30,30 7,-44 6,-45 h 65 64 v 485 485 l -22,4 c -13,3 -47,7 -75,11 l -53,6 z m -67,-235 c 12,-6 32,-21 45,-32 21,-20 22,-27 22,-187 V 334 l -40,-39 c -35,-34 -46,-39 -97,-43 -48,-3 -63,0 -86,18 -39,31 -56,70 -66,150 -17,134 13,255 73,291 35,21 115,25 149,8 z"
       id="path20"
       style="fill:#006bad;fill-opacity:1" />
    <path
       d="M 5600,703 C 5538,506 5472,299 5454,242 l -32,-102 h 78 79 l 16,57 c 9,32 23,82 32,111 l 15,52 166,-2 167,-3 30,-108 30,-107 h 82 82 l -13,43 c -7,23 -73,230 -147,460 l -133,417 h -96 -96 z m 275,0 62,-218 -125,-3 c -68,-1 -127,0 -129,2 -3,3 23,104 58,225 35,121 65,218 67,216 3,-2 33,-102 67,-222 z"
       id="path22"
       style="fill:#006bad;fill-opacity:1" />
    <path
       d="m 7275,836 c -16,-7 -41,-25 -54,-39 -28,-31 -41,-27 -41,14 0,29 -1,29 -55,29 h -55 V 490 140 h 65 65 v 269 269 l 31,26 c 38,32 93,36 109,7 6,-12 10,-124 10,-295 V 140 h 60 60 v 266 266 l 31,29 c 33,31 85,39 107,17 9,-9 12,-88 12,-295 V 140 h 65 65 v 300 c 0,326 -4,352 -54,385 -60,39 -150,28 -201,-25 -34,-35 -41,-37 -48,-11 -13,49 -109,75 -172,47 z"
       id="path24"
       style="fill:#006bad;fill-opacity:1" />
    <path
       d="m 9002,831 c -29,-10 -70,-32 -91,-49 -43,-34 -51,-30 -51,29 v 29 h -65 -65 V 490 140 h 75 75 v 248 248 l 38,36 c 50,48 72,58 130,58 87,0 87,2 90,-316 l 3,-274 h 74 75 v 278 c 0,152 -5,293 -10,312 -28,101 -150,145 -278,101 z"
       id="path26"
       style="fill:#006bad;fill-opacity:1" />
    <path
       d="m 7960,780 v -60 h 100 100 V 490 261 l -102,-3 -103,-3 -3,-58 -3,-57 h 276 275 v 60 60 h -95 -95 v 290 290 h -175 -175 z"
       id="path28"
       style="fill:#006bad;fill-opacity:1" />
  </g>
</svg>
